<?xml version="1.0" standalone="no"?><!DOCTYPE svg PUBLIC "-//W3C//DTD SVG 1.1//EN" "http://www.w3.org/Graphics/SVG/1.1/DTD/svg11.dtd"><svg class="icon" height="512" viewBox="0 0 1024 1024" version="1.1" xmlns="http://www.w3.org/2000/svg"><path d="M960 512c0 141.376-114.624 256-256 256s-256-114.624-256-256c0-70.656-57.344-128-128-128s-128 57.344-128 128 57.344 128 128 128c7.808 0 15.36-0.96 22.784-2.304a381.824 381.824 0 0 0 63.616 114.304c-27.072 9.728-55.872 16-86.4 16-141.376 0-256-114.624-256-256s114.624-256 256-256 256 114.624 256 256c0 70.656 57.344 128 128 128s128-57.344 128-128-57.344-128-128-128c-7.808 0-15.36 0.96-22.784 2.304a380.437333 380.437333 0 0 0-63.616-114.304c27.072-9.728 55.872-16 86.4-16 141.376 0 256 114.624 256 256z" fill="" /></svg>